<?xml version="1.0" standalone="no"?>
<!DOCTYPE svg PUBLIC "-//W3C//DTD SVG 20010904//EN"
 "http://www.w3.org/TR/2001/REC-SVG-20010904/DTD/svg10.dtd">
<svg version="1.0" xmlns="http://www.w3.org/2000/svg"
 width="500.000000pt" height="500.000000pt" viewBox="0 0 500.000000 500.000000"
 preserveAspectRatio="xMidYMid meet">

<g transform="translate(0.000000,500.000000) scale(0.100000,-0.100000)"
fill="#fff" stroke="none">
<path d="M2895 4850 c-49 -5 -135 -18 -190 -30 -55 -12 -120 -26 -145 -30
-129 -23 -363 -130 -536 -246 -397 -266 -655 -622 -794 -1097 -40 -140 -58
-263 -66 -446 -14 -362 65 -671 260 -1019 47 -83 46 -98 -1 -106 -21 -3 -60
-17 -88 -30 -55 -25 -210 -159 -264 -226 -18 -23 -95 -106 -170 -184 -75 -78
-260 -274 -411 -436 -151 -162 -308 -329 -350 -370 -76 -76 -140 -146 -140
-154 0 -2 37 -39 82 -82 45 -44 105 -101 133 -129 27 -27 82 -66 120 -85 64
-32 76 -35 159 -35 77 1 101 5 156 29 36 15 74 30 85 33 61 18 206 150 299
272 11 14 101 109 200 211 98 102 200 210 225 240 26 30 122 132 214 225 92
94 182 189 200 212 18 23 38 43 45 43 7 0 36 -17 65 -38 127 -93 353 -208 503
-257 146 -47 233 -62 447 -76 183 -11 212 -10 497 15 91 9 368 99 489 160 174
88 377 234 498 356 295 297 441 568 544 1007 29 124 33 157 37 329 4 208 -2
256 -59 494 -39 159 -147 430 -216 540 -97 155 -255 344 -366 436 -318 266
-604 399 -987 459 -119 19 -358 26 -475 15z m421 -515 c211 -37 497 -169 637
-293 28 -26 73 -64 98 -84 75 -60 192 -213 274 -357 36 -64 83 -197 127 -361
20 -75 23 -108 23 -290 0 -227 -11 -295 -81 -502 -69 -205 -222 -419 -414
-579 -79 -66 -216 -159 -270 -182 -25 -11 -70 -31 -100 -44 -208 -95 -495
-131 -744 -95 -172 25 -442 134 -561 226 -33 26 -85 64 -115 85 -125 89 -264
260 -351 433 -65 129 -84 180 -121 323 -26 104 -31 142 -35 290 -4 144 -2 187
16 281 27 143 76 283 144 416 96 189 174 283 342 417 139 111 176 136 273 185
273 137 564 182 858 131z"/>
</g>
</svg>
